<mxfile host="app.diagrams.net" modified="2024-03-27T14:02:17.525Z" agent="Mozilla/5.0 (Windows NT 10.0; Win64; x64) AppleWebKit/537.36 (KHTML, like Gecko) Chrome/123.0.0.0 Safari/537.36" etag="HJLpi7b0A3LsSW8VFFJ4" version="22.1.16" type="device">
  <diagram name="Page-1" id="GctReR3svkfAnDVkXLX1">
    <mxGraphModel dx="1050" dy="530" grid="1" gridSize="10" guides="1" tooltips="1" connect="1" arrows="1" fold="1" page="1" pageScale="1" pageWidth="850" pageHeight="1100" math="0" shadow="0">
      <root>
        <mxCell id="0" />
        <mxCell id="1" parent="0" />
        <mxCell id="6N-W1hPIXz6ffyV5_rTk-1" value="" style="ellipse;whiteSpace=wrap;html=1;aspect=fixed;" vertex="1" parent="1">
          <mxGeometry x="100" y="530" width="110" height="110" as="geometry" />
        </mxCell>
        <mxCell id="6N-W1hPIXz6ffyV5_rTk-2" value="" style="rounded=0;whiteSpace=wrap;html=1;rotation=-90;" vertex="1" parent="1">
          <mxGeometry x="142.5" y="547.5" width="25" height="10" as="geometry" />
        </mxCell>
        <mxCell id="6N-W1hPIXz6ffyV5_rTk-3" value="" style="rounded=0;whiteSpace=wrap;html=1;rotation=-90;" vertex="1" parent="1">
          <mxGeometry x="117.5" y="600" width="25" height="10" as="geometry" />
        </mxCell>
        <mxCell id="6N-W1hPIXz6ffyV5_rTk-5" value="" style="rounded=0;whiteSpace=wrap;html=1;rotation=-90;" vertex="1" parent="1">
          <mxGeometry x="167.5" y="600" width="25" height="10" as="geometry" />
        </mxCell>
        <mxCell id="6N-W1hPIXz6ffyV5_rTk-6" value="" style="image;html=1;image=img/lib/clip_art/networking/Wireless_Router_128x128.png" vertex="1" parent="1">
          <mxGeometry x="280" y="350" width="80" height="80" as="geometry" />
        </mxCell>
        <mxCell id="6N-W1hPIXz6ffyV5_rTk-8" value="" style="ellipse;shape=cloud;whiteSpace=wrap;html=1;" vertex="1" parent="1">
          <mxGeometry x="390" y="240" width="120" height="80" as="geometry" />
        </mxCell>
        <mxCell id="6N-W1hPIXz6ffyV5_rTk-9" value="" style="endArrow=classic;startArrow=classic;html=1;rounded=0;entryX=0.25;entryY=0.875;entryDx=0;entryDy=0;entryPerimeter=0;" edge="1" parent="1" target="6N-W1hPIXz6ffyV5_rTk-8">
          <mxGeometry width="50" height="50" relative="1" as="geometry">
            <mxPoint x="350" y="380" as="sourcePoint" />
            <mxPoint x="410" y="330" as="targetPoint" />
          </mxGeometry>
        </mxCell>
        <mxCell id="6N-W1hPIXz6ffyV5_rTk-10" value="" style="endArrow=classic;startArrow=classic;html=1;rounded=0;exitX=0.727;exitY=0;exitDx=0;exitDy=0;exitPerimeter=0;" edge="1" parent="1" source="6N-W1hPIXz6ffyV5_rTk-1" target="6N-W1hPIXz6ffyV5_rTk-6">
          <mxGeometry width="50" height="50" relative="1" as="geometry">
            <mxPoint x="200" y="500" as="sourcePoint" />
            <mxPoint x="250" y="450" as="targetPoint" />
          </mxGeometry>
        </mxCell>
        <mxCell id="6N-W1hPIXz6ffyV5_rTk-11" value="" style="verticalLabelPosition=bottom;verticalAlign=top;html=1;shadow=0;dashed=0;strokeWidth=1;shape=mxgraph.android.phone2;strokeColor=#c0c0c0;" vertex="1" parent="1">
          <mxGeometry x="600" y="350" width="60" height="110" as="geometry" />
        </mxCell>
        <mxCell id="6N-W1hPIXz6ffyV5_rTk-12" value="" style="endArrow=classic;startArrow=classic;html=1;rounded=0;entryX=0.96;entryY=0.7;entryDx=0;entryDy=0;entryPerimeter=0;exitX=0.553;exitY=-0.044;exitDx=0;exitDy=0;exitPerimeter=0;" edge="1" parent="1" source="6N-W1hPIXz6ffyV5_rTk-11" target="6N-W1hPIXz6ffyV5_rTk-8">
          <mxGeometry width="50" height="50" relative="1" as="geometry">
            <mxPoint x="470" y="560" as="sourcePoint" />
            <mxPoint x="520" y="510" as="targetPoint" />
          </mxGeometry>
        </mxCell>
        <mxCell id="6N-W1hPIXz6ffyV5_rTk-13" value="Data Base" style="text;html=1;strokeColor=none;fillColor=none;align=center;verticalAlign=middle;whiteSpace=wrap;rounded=0;" vertex="1" parent="1">
          <mxGeometry x="430" y="330" width="60" height="30" as="geometry" />
        </mxCell>
        <mxCell id="6N-W1hPIXz6ffyV5_rTk-15" value="&lt;h1&gt;Smart Socket&lt;/h1&gt;&lt;div&gt;Voltage measuring&lt;/div&gt;&lt;div&gt;Current Measuring&lt;/div&gt;&lt;div&gt;Surge Detecting Circuit&lt;/div&gt;&lt;div&gt;&lt;br&gt;&lt;/div&gt;" style="text;html=1;strokeColor=none;fillColor=none;spacing=5;spacingTop=-20;whiteSpace=wrap;overflow=hidden;rounded=0;" vertex="1" parent="1">
          <mxGeometry x="50" y="670" width="240" height="120" as="geometry" />
        </mxCell>
        <mxCell id="6N-W1hPIXz6ffyV5_rTk-16" value="&lt;h1&gt;Own IOT ECO system App&lt;/h1&gt;&lt;p&gt;Display the power Cunsumtion&lt;/p&gt;&lt;p&gt;Control the Scoket&lt;/p&gt;&lt;p&gt;Surge Detecting&amp;nbsp;&lt;/p&gt;" style="text;html=1;strokeColor=none;fillColor=none;spacing=5;spacingTop=-20;whiteSpace=wrap;overflow=hidden;rounded=0;" vertex="1" parent="1">
          <mxGeometry x="560" y="480" width="210" height="150" as="geometry" />
        </mxCell>
        <mxCell id="6N-W1hPIXz6ffyV5_rTk-17" value="&lt;h1&gt;Database&lt;/h1&gt;&lt;div&gt;Saving Customers Logging Credential&amp;nbsp;&lt;/div&gt;&lt;div&gt;Act as a bridge&lt;/div&gt;" style="text;html=1;strokeColor=none;fillColor=none;spacing=5;spacingTop=-20;whiteSpace=wrap;overflow=hidden;rounded=0;" vertex="1" parent="1">
          <mxGeometry x="365" y="110" width="190" height="120" as="geometry" />
        </mxCell>
      </root>
    </mxGraphModel>
  </diagram>
</mxfile>
